<svg width="24" height="24" viewBox="0 0 24 24" fill="none" xmlns="http://www.w3.org/2000/svg">
<g clip-path="url(#clip0_33_2313)">
<path d="M6.98918 13.8776L6.36263 16.2166L4.07258 16.2651C3.3882 14.9957 3 13.5433 3 12C3 10.5076 3.36295 9.10018 4.00631 7.86096H4.0068L6.04559 8.23474L6.9387 10.2613C6.75177 10.8062 6.64989 11.3912 6.64989 12C6.64996 12.6606 6.76963 13.2936 6.98918 13.8776Z" fill="#FBBB00"/>
<path d="M20.8428 10.3187C20.9461 10.8631 21 11.4253 21 12C21 12.6443 20.9323 13.2728 20.8032 13.8791C20.3651 15.9422 19.2203 17.7437 17.6344 19.0185L17.6339 19.018L15.066 18.887L14.7025 16.6182C15.7548 16.001 16.5772 15.0353 17.0104 13.8791H12.1979V10.3187H17.0806H20.8428Z" fill="#518EF8"/>
<path d="M17.6339 19.018L17.6344 19.0185C16.0921 20.2582 14.1328 21 12 21C8.57263 21 5.59275 19.0843 4.07263 16.2651L6.98923 13.8776C7.74927 15.9061 9.70603 17.35 12 17.35C12.9861 17.35 13.9098 17.0835 14.7025 16.6182L17.6339 19.018Z" fill="#28B446"/>
<path d="M17.7447 5.07197L14.8291 7.45894C14.0087 6.94615 13.039 6.64992 12 6.64992C9.65409 6.64992 7.66073 8.16013 6.93877 10.2613L4.00684 7.86098H4.00635C5.50421 4.97307 8.52168 3 12 3C14.1838 3 16.186 3.77787 17.7447 5.07197Z" fill="#F14336"/>
</g>
<defs>
<clipPath id="clip0_33_2313">
<rect width="18" height="18" fill="white" transform="translate(3 3)"/>
</clipPath>
</defs>
</svg>
