<svg width="140" height="38" viewBox="0 0 140 38" fill="none" xmlns="http://www.w3.org/2000/svg">
<g clip-path="url(#clip0_1_7578)">
<path d="M31.7179 27.5764C36.5328 27.5764 40.4361 23.6505 40.4361 18.8077C40.4361 13.9648 36.5328 10.0389 31.7179 10.0389C26.9029 10.0389 22.9996 13.9648 22.9996 18.8077C22.9996 23.6505 26.9029 27.5764 31.7179 27.5764Z" fill="black"/>
<path d="M14.3138 18.8073C14.3138 23.6503 18.216 27.5761 23.0321 27.5761L23.0321 10.0389C18.2172 10.0389 14.3138 13.965 14.3138 18.8073Z" fill="black"/>
<path d="M10 18.8072C10 22.053 11.7545 24.8864 14.3593 26.4028L14.3593 11.2123C11.7533 12.7283 10 15.562 10 18.8072Z" fill="black"/>
<path d="M129.82 11.4242C129.714 11.1689 129.557 10.9385 129.359 10.7472C129.16 10.5593 128.927 10.4117 128.672 10.3126C128.132 10.1025 127.534 10.1025 126.994 10.3126C126.739 10.4115 126.506 10.5591 126.306 10.7472C126.108 10.9381 125.952 11.1687 125.847 11.4242C125.733 11.6975 125.676 11.9913 125.678 12.2877C125.678 12.6997 125.775 13.0694 125.968 13.3965C126.153 13.7164 126.423 13.9781 126.748 14.1524C127.083 14.3267 127.455 14.4176 127.833 14.4176C128.21 14.4176 128.582 14.3267 128.917 14.1524C129.242 13.9779 129.512 13.7163 129.699 13.3965C129.893 13.0696 129.99 12.6999 129.99 12.2877C129.992 11.9911 129.934 11.6972 129.82 11.4242ZM129.398 12.9997C129.321 13.2056 129.202 13.393 129.048 13.5498C128.895 13.7066 128.711 13.8294 128.507 13.9101C128.294 13.9968 128.066 14.0405 127.836 14.0387C127.608 14.0402 127.381 13.9965 127.17 13.9101C126.969 13.8289 126.786 13.7084 126.632 13.5556C126.476 13.3971 126.354 13.2078 126.273 12.9997C126.184 12.7731 126.139 12.5313 126.141 12.2877C126.139 12.0491 126.184 11.8124 126.273 11.5915C126.354 11.3882 126.476 11.2041 126.632 11.0508C126.787 10.9011 126.97 10.7841 127.17 10.7064C127.417 10.6113 127.681 10.57 127.945 10.585C128.208 10.6 128.466 10.6711 128.701 10.7935C128.955 10.9321 129.165 11.1407 129.306 11.3949C129.453 11.6552 129.526 11.9528 129.526 12.2877C129.529 12.5311 129.485 12.7728 129.398 12.9997Z" fill="black"/>
<path d="M128.658 12.1321C128.725 12.0272 128.761 11.9044 128.76 11.7792C128.764 11.6572 128.741 11.5359 128.691 11.4247C128.645 11.331 128.569 11.2558 128.475 11.2113C128.372 11.1613 128.262 11.1276 128.149 11.1114C128.001 11.0912 127.851 11.082 127.701 11.0839H127.013V13.3394H127.476V12.479H127.904L128.36 13.3394H128.868L128.351 12.379C128.475 12.3291 128.582 12.2432 128.658 12.1321ZM128.179 12.0382C128.1 12.0939 127.973 12.1218 127.8 12.1218H127.476V11.4512H127.776C127.944 11.4512 128.072 11.4755 128.162 11.5241C128.252 11.5726 128.297 11.6594 128.297 11.7844C128.297 11.8977 128.258 11.9821 128.179 12.0373V12.0382Z" fill="black"/>
<path d="M52.8362 17.6357L51.3597 17.3477C48.8357 16.8198 48.0498 16.1959 48.0498 14.8282C48.0498 13.5325 49.0498 12.7169 51.0977 12.7169C53.7899 12.7169 54.7174 13.7486 54.8366 15.5722H57.9559C57.837 12.3569 55.8127 10.1014 51.0502 10.1014C46.978 10.1014 44.7635 12.093 44.7635 14.9242C44.7635 18.0195 46.9306 19.4831 50.2169 20.1058L51.6456 20.3938C54.2413 20.9217 55.1221 21.5216 55.1221 22.8651C55.1221 24.4726 53.9076 25.3364 51.693 25.3364C49.3357 25.3364 47.5489 24.6168 47.502 21.9294H44.3348C44.3587 25.8643 47.0733 27.9519 51.5978 27.9519C55.8366 27.9519 58.4559 26.0804 58.4559 22.6972C58.4559 19.9869 56.8367 18.4276 52.8362 17.6357Z" fill="black"/>
<path d="M65.3311 14.9002C61.6875 14.9002 59.2588 17.491 59.2588 21.3787C59.2588 25.3377 61.7592 27.8571 65.3786 27.8571C68.3315 27.8571 70.4747 26.2496 71.0936 23.7302H68.2124C67.7586 24.8339 66.8312 25.5056 65.4025 25.5056C63.664 25.5056 62.4259 24.522 62.2114 22.3144H71.4034V21.5948C71.4034 17.6595 69.0935 14.9002 65.3311 14.9002ZM62.2353 20.2037C62.5212 18.1643 63.7118 17.2523 65.3072 17.2523C67.0919 17.2523 68.1649 18.452 68.4029 20.2037H62.2353Z" fill="black"/>
<path d="M83.2604 18.6195C83.2604 16.388 81.8084 14.9009 78.1406 14.9009C74.3065 14.9009 72.7825 16.5087 72.6158 19.1239H75.5688C75.6877 17.6124 76.4022 17.1564 78.1167 17.1564C79.8552 17.1564 80.3552 17.7325 80.3552 18.692C80.3552 19.604 79.7599 19.9639 78.6168 20.1078L76.7594 20.2757C73.2825 20.611 72.0444 22.074 72.0444 24.1387C72.0444 26.5381 73.8543 27.8573 76.4736 27.8573C78.2834 27.8573 79.6168 27.2096 80.4266 26.059C80.4741 26.6588 80.5694 27.2346 80.7593 27.5704H83.7598C83.427 27.0907 83.2598 26.1074 83.2598 25.2192L83.2604 18.6195ZM80.3564 22.6733C80.3564 24.8328 78.7834 25.6966 77.1893 25.6966C75.8081 25.6966 75.1175 25.0489 75.1175 24.0171C75.1175 23.0332 75.6653 22.4322 77.3321 22.2414L78.9513 22.0494C79.5944 21.9774 80.0467 21.8336 80.3564 21.5455V22.6733Z" fill="black"/>
<path d="M90.4186 25.3377C88.6802 25.3377 87.4182 24.0902 87.4182 21.3787C87.4182 18.6672 88.6327 17.4197 90.4186 17.4197C91.752 17.4197 92.8473 18.1155 93.1332 19.6511H96.1337C95.7764 16.7479 93.6332 14.9002 90.4186 14.9002C86.7515 14.9002 84.3463 17.4197 84.3463 21.3787C84.3463 25.3377 86.7751 27.8571 90.4186 27.8571C93.5618 27.8571 95.8478 25.9857 96.1811 22.9624H93.181C92.9426 24.594 91.7759 25.3377 90.4186 25.3377Z" fill="black"/>
<path d="M100.322 10.4854H97.322V27.5693H100.322V10.4854Z" fill="black"/>
<path d="M110.029 22.1227C110.029 24.33 108.601 25.2417 107.291 25.2417C105.743 25.2417 104.981 24.4739 104.981 22.8905V15.1882H101.981V23.3943C101.981 26.3456 103.719 27.8571 106.267 27.8571C108.029 27.8571 109.315 26.9693 110.125 25.7696V27.5679H113.029V15.187H110.028L110.029 22.1227Z" fill="black"/>
<path d="M121.549 14.9003C119.835 14.9003 118.573 15.5961 117.738 16.7958V10.4865H114.738V27.5701H117.619V25.7946C118.452 27.0903 119.762 27.8581 121.548 27.8581C124.93 27.8581 127.049 25.3149 127.049 21.3797C127.049 17.4444 124.931 14.9003 121.549 14.9003ZM120.835 25.3606C118.882 25.3606 117.668 23.993 117.668 21.3775C117.668 18.7621 118.882 17.3944 120.835 17.3944C122.788 17.3944 124.002 18.6664 124.002 21.2815C124.002 23.8967 122.788 25.3606 120.835 25.3606Z" fill="black"/>
</g>
<defs>
<clipPath id="clip0_1_7578">
<rect width="120" height="17.9221" fill="white" transform="translate(10 10.0389)"/>
</clipPath>
</defs>
</svg>
