<svg width="92" height="90" viewBox="0 0 92 90" fill="none" xmlns="http://www.w3.org/2000/svg">
<path d="M62.1552 67.0013C73.9294 67.0013 83.4744 57.3839 83.4744 45.5202C83.4744 33.6565 73.9294 24.0391 62.1552 24.0391C50.3809 24.0391 40.8359 33.6565 40.8359 45.5202C40.8359 57.3839 50.3809 67.0013 62.1552 67.0013Z" fill="#E6E6E6"/>
<path d="M19.5977 45.4808C19.5977 57.3449 29.1158 66.9623 40.8629 66.9623L40.8629 24C29.1187 24 19.5977 33.6181 19.5977 45.4808Z" fill="#E6E6E6"/>
<path d="M9 45.4565C9 53.3908 13.301 60.3171 19.6866 64.0239L19.6866 26.8906C13.2981 30.5966 9 37.5236 9 45.4565Z" fill="#E6E6E6"/>
</svg>
